<svg width="214" height="28" viewBox="0 0 214 28" fill="none" xmlns="http://www.w3.org/2000/svg">
<path d="M0.955094 22V1.56H3.72709V19.48H12.8271V22H0.955094ZM22.5322 22.28C20.7215 22.28 19.2748 21.748 18.1922 20.684C17.1095 19.62 16.5682 18.1733 16.5682 16.344V6.6H19.3402V16.344C19.3402 17.4267 19.6202 18.2853 20.1802 18.92C20.7588 19.536 21.5428 19.844 22.5322 19.844C23.5402 19.844 24.3335 19.536 24.9122 18.92C25.4908 18.2853 25.7802 17.4267 25.7802 16.344V6.6H28.5522V16.344C28.5522 18.1733 28.0015 19.62 26.9002 20.684C25.7988 21.748 24.3428 22.28 22.5322 22.28ZM33.2732 22V19.48H38.6772V9.12H33.8332V6.6H41.4492V19.48H46.5172V22H33.2732ZM39.7972 3.884C39.1626 3.884 38.6586 3.72533 38.2852 3.408C37.9119 3.072 37.7252 2.624 37.7252 2.064C37.7252 1.48533 37.9119 1.028 38.2852 0.691999C38.6586 0.355999 39.1626 0.187999 39.7972 0.187999C40.4319 0.187999 40.9359 0.355999 41.3092 0.691999C41.6826 1.028 41.8692 1.48533 41.8692 2.064C41.8692 2.624 41.6826 3.072 41.3092 3.408C40.9359 3.72533 40.4319 3.884 39.7972 3.884ZM55.5223 22.224C54.3649 22.224 53.3663 22.0467 52.5263 21.692C51.7049 21.3373 51.0703 20.8333 50.6223 20.18C50.1929 19.508 49.9783 18.696 49.9783 17.744H52.7223C52.7223 18.416 52.9649 18.948 53.4503 19.34C53.9543 19.7133 54.6449 19.9 55.5223 19.9H56.7543C57.6503 19.9 58.3503 19.704 58.8543 19.312C59.3583 18.92 59.6103 18.3693 59.6103 17.66C59.6103 17.0253 59.4516 16.54 59.1343 16.204C58.8356 15.8493 58.3783 15.6347 57.7623 15.56L53.6183 14.972C52.5169 14.8227 51.6676 14.3747 51.0703 13.628C50.4729 12.8813 50.1743 11.92 50.1743 10.744C50.1743 9.36267 50.6409 8.28933 51.5743 7.524C52.5076 6.75867 53.8143 6.376 55.4943 6.376H56.7263C58.2943 6.376 59.5543 6.74933 60.5063 7.496C61.4769 8.24267 61.9996 9.232 62.0743 10.464H59.2743C59.2556 9.92267 59.0129 9.484 58.5463 9.148C58.0796 8.812 57.4729 8.644 56.7263 8.644H55.4943C54.6729 8.644 54.0289 8.83067 53.5623 9.204C53.0956 9.57733 52.8623 10.0813 52.8623 10.716C52.8623 11.22 52.9929 11.6213 53.2543 11.92C53.5156 12.2 53.8983 12.3773 54.4023 12.452L58.2943 13.012C59.6196 13.1987 60.6183 13.684 61.2903 14.468C61.9623 15.2333 62.2983 16.2973 62.2983 17.66C62.2983 19.116 61.8129 20.2453 60.8423 21.048C59.8903 21.832 58.5276 22.224 56.7543 22.224H55.5223ZM83.8084 22V1.56H86.5804V10.184H92.8524V1.56H95.6244V22H92.8524V12.704H86.5804V22H83.8084ZM106.505 22.28C105.273 22.28 104.191 22.0373 103.257 21.552C102.343 21.048 101.624 20.3387 101.101 19.424C100.597 18.4907 100.345 17.3893 100.345 16.12V12.48C100.345 11.192 100.597 10.0907 101.101 9.176C101.624 8.26133 102.343 7.56133 103.257 7.076C104.191 6.572 105.273 6.32 106.505 6.32C107.737 6.32 108.811 6.56267 109.725 7.048C110.659 7.53333 111.377 8.224 111.881 9.12C112.404 9.99733 112.665 11.0427 112.665 12.256V15H103.061V16.344C103.061 17.464 103.369 18.3413 103.985 18.976C104.62 19.6107 105.46 19.928 106.505 19.928C107.383 19.928 108.111 19.76 108.689 19.424C109.287 19.088 109.641 18.6213 109.753 18.024H112.525C112.339 19.3307 111.695 20.3667 110.593 21.132C109.492 21.8973 108.129 22.28 106.505 22.28ZM109.949 13.208V12.228C109.949 11.052 109.651 10.1467 109.053 9.512C108.456 8.87733 107.607 8.56 106.505 8.56C105.404 8.56 104.555 8.88667 103.957 9.54C103.36 10.1747 103.061 11.08 103.061 12.256V12.956H110.173L109.949 13.208ZM117.359 22V6.6H120.103V9.54H120.747L120.103 10.184C120.103 8.97067 120.467 8.028 121.195 7.356C121.941 6.66533 122.959 6.32 124.247 6.32C125.777 6.32 127 6.80533 127.915 7.776C128.829 8.74667 129.287 10.0533 129.287 11.696V22H126.515V12.144C126.515 11.024 126.235 10.1653 125.675 9.568C125.115 8.97067 124.349 8.672 123.379 8.672C122.371 8.672 121.577 8.98933 120.999 9.624C120.42 10.24 120.131 11.1173 120.131 12.256V22H117.359ZM134.708 22V6.6H137.452V9.596H138.096L137.452 10.296C137.452 9.08267 137.825 8.12133 138.572 7.412C139.318 6.684 140.345 6.32 141.652 6.32C143.257 6.32 144.489 6.80533 145.348 7.776C146.225 8.74667 146.664 10.128 146.664 11.92V13.264H143.892V11.948C143.892 10.8653 143.621 10.0627 143.08 9.54C142.538 8.99867 141.754 8.728 140.728 8.728C139.682 8.728 138.88 9.036 138.32 9.652C137.76 10.268 137.48 11.1453 137.48 12.284V22H134.708ZM150.797 22V19.48H156.201V9.12H151.357V6.6H158.973V19.48H164.041V22H150.797ZM157.321 3.884C156.686 3.884 156.182 3.72533 155.809 3.408C155.435 3.072 155.249 2.624 155.249 2.064C155.249 1.48533 155.435 1.028 155.809 0.691999C156.182 0.355999 156.686 0.187999 157.321 0.187999C157.955 0.187999 158.459 0.355999 158.833 0.691999C159.206 1.028 159.393 1.48533 159.393 2.064C159.393 2.624 159.206 3.072 158.833 3.408C158.459 3.72533 157.955 3.884 157.321 3.884ZM176.826 27.04V22.616L176.882 19.116H176.266L176.91 18.192C176.91 19.4427 176.518 20.4413 175.734 21.188C174.968 21.916 173.932 22.28 172.626 22.28C171.095 22.28 169.872 21.7667 168.958 20.74C168.043 19.6947 167.586 18.276 167.586 16.484V12.088C167.586 10.296 168.043 8.88667 168.958 7.86C169.891 6.83333 171.114 6.32 172.626 6.32C173.932 6.32 174.968 6.684 175.734 7.412C176.518 8.14 176.91 9.13867 176.91 10.408L176.266 9.596H176.854V6.6H179.598V27.04H176.826ZM173.606 19.872C174.614 19.872 175.398 19.564 175.958 18.948C176.536 18.3133 176.826 17.4453 176.826 16.344V12.256C176.826 11.1547 176.536 10.296 175.958 9.68C175.398 9.04533 174.614 8.728 173.606 8.728C172.579 8.728 171.776 8.98933 171.198 9.512C170.638 10.0347 170.358 10.8653 170.358 12.004V16.596C170.358 17.7347 170.638 18.5653 171.198 19.088C171.776 19.6107 172.579 19.872 173.606 19.872ZM190.423 22.28C188.612 22.28 187.165 21.748 186.083 20.684C185 19.62 184.459 18.1733 184.459 16.344V6.6H187.231V16.344C187.231 17.4267 187.511 18.2853 188.071 18.92C188.649 19.536 189.433 19.844 190.423 19.844C191.431 19.844 192.224 19.536 192.803 18.92C193.381 18.2853 193.671 17.4267 193.671 16.344V6.6H196.443V16.344C196.443 18.1733 195.892 19.62 194.791 20.684C193.689 21.748 192.233 22.28 190.423 22.28ZM207.24 22.28C206.008 22.28 204.925 22.0373 203.992 21.552C203.077 21.048 202.359 20.3387 201.836 19.424C201.332 18.4907 201.08 17.3893 201.08 16.12V12.48C201.08 11.192 201.332 10.0907 201.836 9.176C202.359 8.26133 203.077 7.56133 203.992 7.076C204.925 6.572 206.008 6.32 207.24 6.32C208.472 6.32 209.545 6.56267 210.46 7.048C211.393 7.53333 212.112 8.224 212.616 9.12C213.139 9.99733 213.4 11.0427 213.4 12.256V15H203.796V16.344C203.796 17.464 204.104 18.3413 204.72 18.976C205.355 19.6107 206.195 19.928 207.24 19.928C208.117 19.928 208.845 19.76 209.424 19.424C210.021 19.088 210.376 18.6213 210.488 18.024H213.26C213.073 19.3307 212.429 20.3667 211.328 21.132C210.227 21.8973 208.864 22.28 207.24 22.28ZM210.684 13.208V12.228C210.684 11.052 210.385 10.1467 209.788 9.512C209.191 8.87733 208.341 8.56 207.24 8.56C206.139 8.56 205.289 8.88667 204.692 9.54C204.095 10.1747 203.796 11.08 203.796 12.256V12.956H210.908L210.684 13.208Z" fill="white"/>
</svg>
