<svg width="155" height="45" viewBox="0 0 155 45" fill="none" xmlns="http://www.w3.org/2000/svg">
<path d="M61.4515 19.5525L61.4596 19.5485C61.8073 19.3748 62.2389 19.3085 62.714 19.3085H63.37V16.5001H61.402C60.8095 16.5001 60.2284 16.5205 59.6576 16.5612L59.6487 16.5619L59.6398 16.5622C59.1137 16.581 58.6465 16.6834 58.2322 16.8627C57.894 17.0175 57.6071 17.2924 57.3794 17.7294L57.3794 17.7294C57.1632 18.1446 57.03 18.8092 57.03 19.7772V24.7095C57.03 25.3848 56.9282 26.0314 56.7234 26.6466L56.7213 26.6529L56.7213 26.6529C56.51 27.2611 56.188 27.7797 55.7481 28.1947L55.7429 28.1997L55.7375 28.2045C55.3836 28.5196 54.9662 28.7178 54.5 28.8076V31.5253C54.9719 31.6084 55.3933 31.8144 55.7481 32.1498L61.4515 19.5525ZM61.4515 19.5525L61.4436 19.5568C61.0246 19.7852 60.8118 20.2429 60.6976 20.7228L60.695 20.7335L60.693 20.7442C60.5994 21.2313 60.559 21.9693 60.559 22.9301V25.9893C60.559 26.7286 60.442 27.3454 60.2245 27.8524L60.2244 27.8524L60.221 27.8609C60.0076 28.3845 59.7633 28.7903 59.4973 29.092M61.4515 19.5525L59.4973 29.092M59.4973 29.092C59.2002 29.4279 58.9392 29.6669 58.7127 29.8234L58.1325 30.2244L58.703 30.6392C58.8895 30.7748 59.1328 31.0043 59.434 31.3459L59.4444 31.3577L59.4555 31.3688C59.7444 31.6575 60.0067 32.0277 60.2369 32.4876L60.2368 32.4876L60.2408 32.4952C60.4493 32.8944 60.559 33.3546 60.559 33.8871V37.633C60.559 38.5738 60.5994 39.3009 60.693 39.7876L60.6951 39.7984L60.6976 39.809C60.8118 40.289 61.0246 40.7466 61.4436 40.9751L61.4516 40.9795L61.4597 40.9835C61.8073 41.157 62.2388 41.2235 62.714 41.2235H63.37V44.0319H61.402C60.8252 44.0319 60.2484 44.0215 59.6715 44.0009C59.1668 43.9822 58.7078 43.88 58.2916 43.6988L58.2829 43.695L58.2741 43.6916C57.9266 43.5557 57.6237 43.2864 57.378 42.8308C57.1626 42.4154 57.03 41.7516 57.03 40.7859V35.6352C57.03 34.9609 56.9285 34.3233 56.7224 33.7261C56.5124 33.0994 56.1913 32.5681 55.7486 32.1503L59.4973 29.092ZM84.7376 36.3426L84.7377 36.3426C85.2451 34.5389 85.5 32.5973 85.5 30.5157C85.5 28.4369 85.2458 26.6309 84.7381 24.8463L84.7362 24.8398L84.7363 24.8398C84.2424 23.0104 83.6098 21.2709 82.8436 19.8598C82.1418 18.5673 81.404 17.4961 80.6346 16.6392L77.9631 17.8929C78.6354 18.731 79.2447 19.6898 79.7919 20.7665C80.4593 22.057 80.982 23.5217 81.3647 25.1567C81.3647 25.1569 81.3648 25.1572 81.3649 25.1574L80.878 25.2714L84.7376 36.3426ZM84.7376 36.3426L84.7363 36.3477C84.245 38.1677 83.6138 39.7735 82.8451 41.1689L82.8436 41.1716C82.1413 42.4651 81.4029 43.537 80.6328 44.3942M84.7376 36.3426L80.6328 44.3942M80.6328 44.3942L77.9604 43.1633C78.6334 42.3106 79.2436 41.3437 79.7919 40.2648L80.6328 44.3942Z" fill="#6E4AC6" stroke="black"/>
<path d="M13.4233 43.5114C11.1222 43.5114 9.14063 42.968 7.47869 41.8814C5.81676 40.7947 4.53835 39.2979 3.64347 37.391C2.74858 35.484 2.30114 33.3054 2.30114 30.8551C2.30114 28.3622 2.75923 26.1623 3.67543 24.2553C4.60227 22.3377 5.89134 20.8409 7.54261 19.7649C9.20455 18.6783 11.1435 18.1349 13.3594 18.1349C15.0852 18.1349 16.6406 18.4545 18.0256 19.0938C19.4105 19.733 20.5451 20.6278 21.4293 21.7784C22.3136 22.929 22.8622 24.2713 23.0753 25.8054H19.304C19.0163 24.6868 18.3771 23.696 17.3864 22.8331C16.4063 21.9595 15.0852 21.5227 13.4233 21.5227C11.9531 21.5227 10.6641 21.9062 9.55611 22.6733C8.45881 23.4297 7.60121 24.5004 6.98331 25.8853C6.37607 27.2596 6.07244 28.8736 6.07244 30.7273C6.07244 32.6236 6.37074 34.2749 6.96733 35.6811C7.57457 37.0874 8.42685 38.1793 9.52415 38.957C10.6321 39.7347 11.9318 40.1236 13.4233 40.1236C14.4034 40.1236 15.293 39.9531 16.092 39.6122C16.891 39.2713 17.5675 38.7812 18.1214 38.142C18.6754 37.5028 19.0696 36.7358 19.304 35.8409H23.0753C22.8622 37.2898 22.3349 38.5948 21.4933 39.756C20.6623 40.9066 19.5597 41.8228 18.1854 42.5046C16.8217 43.1758 15.2344 43.5114 13.4233 43.5114ZM38.56 43.5114C36.3441 43.5114 34.3999 42.984 32.7273 41.9293C31.0653 40.8746 29.7656 39.3991 28.8281 37.5028C27.9013 35.6065 27.4379 33.3906 27.4379 30.8551C27.4379 28.2983 27.9013 26.0664 28.8281 24.1594C29.7656 22.2525 31.0653 20.7717 32.7273 19.717C34.3999 18.6623 36.3441 18.1349 38.56 18.1349C40.7759 18.1349 42.7148 18.6623 44.3768 19.717C46.0494 20.7717 47.3491 22.2525 48.2759 24.1594C49.2134 26.0664 49.6822 28.2983 49.6822 30.8551C49.6822 33.3906 49.2134 35.6065 48.2759 37.5028C47.3491 39.3991 46.0494 40.8746 44.3768 41.9293C42.7148 42.984 40.7759 43.5114 38.56 43.5114ZM38.56 40.1236C40.2433 40.1236 41.6282 39.6921 42.7148 38.8292C43.8015 37.9663 44.6058 36.8317 45.1278 35.4254C45.6499 34.0192 45.9109 32.4957 45.9109 30.8551C45.9109 29.2145 45.6499 27.6857 45.1278 26.2688C44.6058 24.8519 43.8015 23.7067 42.7148 22.8331C41.6282 21.9595 40.2433 21.5227 38.56 21.5227C36.8768 21.5227 35.4918 21.9595 34.4052 22.8331C33.3185 23.7067 32.5142 24.8519 31.9922 26.2688C31.4702 27.6857 31.2092 29.2145 31.2092 30.8551C31.2092 32.4957 31.4702 34.0192 31.9922 35.4254C32.5142 36.8317 33.3185 37.9663 34.4052 38.8292C35.4918 39.6921 36.8768 40.1236 38.56 40.1236Z" fill="white"/>
<path d="M100.216 42.4545C98.1136 42.4545 96.3002 41.9905 94.7756 41.0625C93.2604 40.125 92.0909 38.8182 91.267 37.142C90.4527 35.4564 90.0455 33.4962 90.0455 31.2614C90.0455 29.0265 90.4527 27.0568 91.267 25.3523C92.0909 23.6383 93.2367 22.303 94.7045 21.3466C96.1818 20.3807 97.9053 19.8977 99.875 19.8977C101.011 19.8977 102.134 20.0871 103.241 20.4659C104.349 20.8447 105.358 21.4602 106.267 22.3125C107.176 23.1553 107.901 24.2727 108.44 25.6648C108.98 27.0568 109.25 28.7708 109.25 30.8068V32.2273H92.4318V29.3295H105.841C105.841 28.0985 105.595 27 105.102 26.0341C104.619 25.0682 103.928 24.3059 103.028 23.7472C102.138 23.1884 101.087 22.9091 99.875 22.9091C98.5398 22.9091 97.3845 23.2405 96.4091 23.9034C95.4432 24.5568 94.6998 25.4091 94.179 26.4602C93.6581 27.5114 93.3977 28.6383 93.3977 29.8409V31.7727C93.3977 33.4205 93.6818 34.8172 94.25 35.9631C94.8277 37.0994 95.6278 37.9659 96.6506 38.5625C97.6733 39.1496 98.8617 39.4432 100.216 39.4432C101.097 39.4432 101.892 39.3201 102.602 39.0739C103.322 38.8182 103.942 38.4394 104.463 37.9375C104.984 37.4261 105.386 36.7917 105.67 36.0341L108.909 36.9432C108.568 38.0417 107.995 39.0076 107.19 39.8409C106.385 40.6648 105.391 41.3087 104.207 41.7727C103.024 42.2273 101.693 42.4545 100.216 42.4545ZM116.263 20.1818L121.491 29.1023L126.718 20.1818H130.582L123.536 31.0909L130.582 42H126.718L121.491 33.5341L116.263 42H112.4L119.332 31.0909L112.4 20.1818H116.263ZM135.82 42V12.9091H139.342V38.875H152.865V42H135.82Z" fill="white"/>
</svg>
