<svg width="151" height="45" viewBox="0 0 151 45" fill="none" xmlns="http://www.w3.org/2000/svg">
<path d="M60.714 19.8085C60.277 19.8085 59.933 19.8709 59.683 19.9958C59.454 20.1206 59.288 20.4016 59.184 20.8386C59.1 21.2756 59.059 21.9728 59.059 22.9301V25.9893C59.059 26.7802 58.934 27.4669 58.684 28.0496C58.455 28.6115 58.184 29.0694 57.872 29.4231C57.559 29.7769 57.268 30.0475 56.997 30.2348C57.226 30.4013 57.497 30.6614 57.809 31.0152C58.142 31.3481 58.434 31.7644 58.684 32.2638C58.934 32.7425 59.059 33.2836 59.059 33.8871V37.633C59.059 38.5695 59.1 39.2563 59.184 39.6933C59.288 40.1303 59.454 40.4113 59.683 40.5362C59.933 40.661 60.277 40.7235 60.714 40.7235H61.87V44.5319H59.402C58.819 44.5319 58.236 44.5214 57.653 44.5006C57.091 44.4798 56.57 44.3654 56.092 44.1573C55.613 43.97 55.227 43.6058 54.936 43.0647C54.665 42.5444 54.53 41.7848 54.53 40.7859V35.6352C54.53 35.0109 54.436 34.4282 54.249 33.8871C54.061 33.3252 53.78 32.8673 53.405 32.5136C53.031 32.1598 52.562 31.9829 52 31.9829V28.3618C52.562 28.341 53.031 28.1641 53.405 27.8311C53.78 27.4773 54.061 27.0299 54.249 26.4888C54.436 25.9269 54.53 25.3338 54.53 24.7095V19.7772C54.53 18.7783 54.665 18.0187 54.936 17.4985C55.207 16.9782 55.571 16.614 56.029 16.4059C56.508 16.1978 57.039 16.0833 57.622 16.0625C58.205 16.0209 58.798 16.0001 59.402 16.0001H61.87V19.8085H60.714ZM84 30.5157C84 32.6384 83.74 34.6259 83.219 36.478C82.719 38.3302 82.074 39.9743 81.283 41.4102C80.492 42.867 79.648 44.0636 78.753 45.0001L75.161 43.3456C75.973 42.4091 76.702 41.3062 77.347 40.0367C77.993 38.788 78.503 37.3729 78.878 35.7913C79.253 34.1888 79.5 32.4303 79.5 30.5157C79.5 28.6011 79.253 26.853 78.878 25.2714C78.503 23.6689 77.993 22.2433 77.347 20.9947C76.702 19.7252 75.973 18.6326 75.161 17.717L78.753 16.0313C79.648 16.9678 80.492 18.1644 81.283 19.6212C82.074 21.0779 82.719 22.8573 83.219 24.7095C83.74 26.5409 84 28.393 84 30.5157Z" fill="#6E4AC6"/>
<path d="M13.4233 43.5114C11.1222 43.5114 9.14063 42.968 7.47869 41.8814C5.81676 40.7947 4.53835 39.2979 3.64347 37.391C2.74858 35.484 2.30114 33.3054 2.30114 30.8551C2.30114 28.3622 2.75923 26.1623 3.67543 24.2553C4.60227 22.3377 5.89134 20.8409 7.54261 19.7649C9.20455 18.6783 11.1435 18.1349 13.3594 18.1349C15.0852 18.1349 16.6406 18.4545 18.0256 19.0938C19.4105 19.733 20.5451 20.6278 21.4293 21.7784C22.3136 22.929 22.8622 24.2713 23.0753 25.8054H19.304C19.0163 24.6868 18.3771 23.696 17.3864 22.8331C16.4063 21.9595 15.0852 21.5227 13.4233 21.5227C11.9531 21.5227 10.6641 21.9062 9.55611 22.6733C8.45881 23.4297 7.60121 24.5004 6.98331 25.8853C6.37607 27.2596 6.07244 28.8736 6.07244 30.7273C6.07244 32.6236 6.37074 34.2749 6.96733 35.6811C7.57457 37.0874 8.42685 38.1793 9.52415 38.957C10.6321 39.7347 11.9318 40.1236 13.4233 40.1236C14.4034 40.1236 15.293 39.9531 16.092 39.6122C16.891 39.2713 17.5675 38.7812 18.1214 38.142C18.6754 37.5028 19.0696 36.7358 19.304 35.8409H23.0753C22.8622 37.2898 22.3349 38.5948 21.4933 39.756C20.6623 40.9066 19.5597 41.8228 18.1854 42.5046C16.8217 43.1758 15.2344 43.5114 13.4233 43.5114ZM38.56 43.5114C36.3441 43.5114 34.3999 42.984 32.7273 41.9293C31.0653 40.8746 29.7656 39.3991 28.8281 37.5028C27.9013 35.6065 27.4379 33.3906 27.4379 30.8551C27.4379 28.2983 27.9013 26.0664 28.8281 24.1594C29.7656 22.2525 31.0653 20.7717 32.7273 19.717C34.3999 18.6623 36.3441 18.1349 38.56 18.1349C40.7759 18.1349 42.7148 18.6623 44.3768 19.717C46.0494 20.7717 47.3491 22.2525 48.2759 24.1594C49.2134 26.0664 49.6822 28.2983 49.6822 30.8551C49.6822 33.3906 49.2134 35.6065 48.2759 37.5028C47.3491 39.3991 46.0494 40.8746 44.3768 41.9293C42.7148 42.984 40.7759 43.5114 38.56 43.5114ZM38.56 40.1236C40.2433 40.1236 41.6282 39.6921 42.7148 38.8292C43.8015 37.9663 44.6058 36.8317 45.1278 35.4254C45.6499 34.0192 45.9109 32.4957 45.9109 30.8551C45.9109 29.2145 45.6499 27.6857 45.1278 26.2688C44.6058 24.8519 43.8015 23.7067 42.7148 22.8331C41.6282 21.9595 40.2433 21.5227 38.56 21.5227C36.8768 21.5227 35.4918 21.9595 34.4052 22.8331C33.3185 23.7067 32.5142 24.8519 31.9922 26.2688C31.4702 27.6857 31.2092 29.2145 31.2092 30.8551C31.2092 32.4957 31.4702 34.0192 31.9922 35.4254C32.5142 36.8317 33.3185 37.9663 34.4052 38.8292C35.4918 39.6921 36.8768 40.1236 38.56 40.1236Z" fill="white"/>
<path d="M96.2159 42.4545C94.1136 42.4545 92.3002 41.9905 90.7756 41.0625C89.2604 40.125 88.0909 38.8182 87.267 37.142C86.4527 35.4564 86.0455 33.4962 86.0455 31.2614C86.0455 29.0265 86.4527 27.0568 87.267 25.3523C88.0909 23.6383 89.2367 22.303 90.7045 21.3466C92.1818 20.3807 93.9053 19.8977 95.875 19.8977C97.0114 19.8977 98.1335 20.0871 99.2415 20.4659C100.349 20.8447 101.358 21.4602 102.267 22.3125C103.176 23.1553 103.901 24.2727 104.44 25.6648C104.98 27.0568 105.25 28.7708 105.25 30.8068V32.2273H88.4318V29.3295H101.841C101.841 28.0985 101.595 27 101.102 26.0341C100.619 25.0682 99.928 24.3059 99.0284 23.7472C98.1383 23.1884 97.0871 22.9091 95.875 22.9091C94.5398 22.9091 93.3845 23.2405 92.4091 23.9034C91.4432 24.5568 90.6998 25.4091 90.179 26.4602C89.6581 27.5114 89.3977 28.6383 89.3977 29.8409V31.7727C89.3977 33.4205 89.6818 34.8172 90.25 35.9631C90.8277 37.0994 91.6278 37.9659 92.6506 38.5625C93.6733 39.1496 94.8617 39.4432 96.2159 39.4432C97.0966 39.4432 97.892 39.3201 98.6023 39.0739C99.322 38.8182 99.9422 38.4394 100.463 37.9375C100.984 37.4261 101.386 36.7917 101.67 36.0341L104.909 36.9432C104.568 38.0417 103.995 39.0076 103.19 39.8409C102.385 40.6648 101.391 41.3087 100.207 41.7727C99.0237 42.2273 97.6932 42.4545 96.2159 42.4545ZM112.263 20.1818L117.491 29.1023L122.718 20.1818H126.582L119.536 31.0909L126.582 42H122.718L117.491 33.5341L112.263 42H108.4L115.332 31.0909L108.4 20.1818H112.263ZM131.82 42V12.9091H135.342V38.875H148.865V42H131.82Z" fill="white"/>
</svg>
