<svg width="155" height="45" viewBox="0 0 155 45" fill="none" xmlns="http://www.w3.org/2000/svg">
<path d="M62.714 19.8085C62.277 19.8085 61.933 19.8709 61.683 19.9958C61.454 20.1206 61.288 20.4016 61.184 20.8386C61.1 21.2756 61.059 21.9728 61.059 22.9301V25.9893C61.059 26.7802 60.934 27.4669 60.684 28.0496C60.455 28.6115 60.184 29.0694 59.872 29.4231C59.559 29.7769 59.268 30.0475 58.997 30.2348C59.226 30.4013 59.497 30.6614 59.809 31.0152C60.142 31.3481 60.434 31.7644 60.684 32.2638C60.934 32.7425 61.059 33.2836 61.059 33.8871V37.633C61.059 38.5695 61.1 39.2563 61.184 39.6933C61.288 40.1303 61.454 40.4113 61.683 40.5362C61.933 40.661 62.277 40.7235 62.714 40.7235H63.87V44.5319H61.402C60.819 44.5319 60.236 44.5214 59.653 44.5006C59.091 44.4798 58.57 44.3654 58.092 44.1573C57.613 43.97 57.227 43.6058 56.936 43.0647C56.665 42.5444 56.53 41.7848 56.53 40.7859V35.6352C56.53 35.0109 56.436 34.4282 56.249 33.8871C56.061 33.3252 55.78 32.8673 55.405 32.5136C55.031 32.1598 54.562 31.9829 54 31.9829V28.3618C54.562 28.341 55.031 28.1641 55.405 27.8311C55.78 27.4773 56.061 27.0299 56.249 26.4888C56.436 25.9269 56.53 25.3338 56.53 24.7095V19.7772C56.53 18.7783 56.665 18.0187 56.936 17.4985C57.207 16.9782 57.571 16.614 58.029 16.4059C58.508 16.1978 59.039 16.0833 59.622 16.0625C60.205 16.0209 60.798 16.0001 61.402 16.0001H63.87V19.8085H62.714ZM86 30.5157C86 32.6384 85.74 34.6259 85.219 36.478C84.719 38.3302 84.074 39.9743 83.283 41.4102C82.492 42.867 81.648 44.0636 80.753 45.0001L77.161 43.3456C77.973 42.4091 78.702 41.3062 79.347 40.0367C79.993 38.788 80.503 37.3729 80.878 35.7913C81.253 34.1888 81.5 32.4303 81.5 30.5157C81.5 28.6011 81.253 26.853 80.878 25.2714C80.503 23.6689 79.993 22.2433 79.347 20.9947C78.702 19.7252 77.973 18.6326 77.161 17.717L80.753 16.0313C81.648 16.9678 82.492 18.1644 83.283 19.6212C84.074 21.0779 84.719 22.8573 85.219 24.7095C85.74 26.5409 86 28.393 86 30.5157Z" fill="#24193F"/>
<path d="M13.4233 43.5114C11.1222 43.5114 9.14063 42.968 7.47869 41.8814C5.81676 40.7947 4.53835 39.2979 3.64347 37.391C2.74858 35.484 2.30114 33.3054 2.30114 30.8551C2.30114 28.3622 2.75923 26.1623 3.67543 24.2553C4.60227 22.3377 5.89134 20.8409 7.54261 19.7649C9.20455 18.6783 11.1435 18.1349 13.3594 18.1349C15.0852 18.1349 16.6406 18.4545 18.0256 19.0938C19.4105 19.733 20.5451 20.6278 21.4293 21.7784C22.3136 22.929 22.8622 24.2713 23.0753 25.8054H19.304C19.0163 24.6868 18.3771 23.696 17.3864 22.8331C16.4063 21.9595 15.0852 21.5227 13.4233 21.5227C11.9531 21.5227 10.6641 21.9062 9.55611 22.6733C8.45881 23.4297 7.60121 24.5004 6.98331 25.8853C6.37607 27.2596 6.07244 28.8736 6.07244 30.7273C6.07244 32.6236 6.37074 34.2749 6.96733 35.6811C7.57457 37.0874 8.42685 38.1793 9.52415 38.957C10.6321 39.7347 11.9318 40.1236 13.4233 40.1236C14.4034 40.1236 15.293 39.9531 16.092 39.6122C16.891 39.2713 17.5675 38.7812 18.1214 38.142C18.6754 37.5028 19.0696 36.7358 19.304 35.8409H23.0753C22.8622 37.2898 22.3349 38.5948 21.4933 39.756C20.6623 40.9066 19.5597 41.8228 18.1854 42.5046C16.8217 43.1758 15.2344 43.5114 13.4233 43.5114ZM38.56 43.5114C36.3441 43.5114 34.3999 42.984 32.7273 41.9293C31.0653 40.8746 29.7656 39.3991 28.8281 37.5028C27.9013 35.6065 27.4379 33.3906 27.4379 30.8551C27.4379 28.2983 27.9013 26.0664 28.8281 24.1594C29.7656 22.2525 31.0653 20.7717 32.7273 19.717C34.3999 18.6623 36.3441 18.1349 38.56 18.1349C40.7759 18.1349 42.7148 18.6623 44.3768 19.717C46.0494 20.7717 47.3491 22.2525 48.2759 24.1594C49.2134 26.0664 49.6822 28.2983 49.6822 30.8551C49.6822 33.3906 49.2134 35.6065 48.2759 37.5028C47.3491 39.3991 46.0494 40.8746 44.3768 41.9293C42.7148 42.984 40.7759 43.5114 38.56 43.5114ZM38.56 40.1236C40.2433 40.1236 41.6282 39.6921 42.7148 38.8292C43.8015 37.9663 44.6058 36.8317 45.1278 35.4254C45.6499 34.0192 45.9109 32.4957 45.9109 30.8551C45.9109 29.2145 45.6499 27.6857 45.1278 26.2688C44.6058 24.8519 43.8015 23.7067 42.7148 22.8331C41.6282 21.9595 40.2433 21.5227 38.56 21.5227C36.8768 21.5227 35.4918 21.9595 34.4052 22.8331C33.3185 23.7067 32.5142 24.8519 31.9922 26.2688C31.4702 27.6857 31.2092 29.2145 31.2092 30.8551C31.2092 32.4957 31.4702 34.0192 31.9922 35.4254C32.5142 36.8317 33.3185 37.9663 34.4052 38.8292C35.4918 39.6921 36.8768 40.1236 38.56 40.1236Z" fill="white"/>
<path d="M100.216 42.4545C98.1136 42.4545 96.3002 41.9905 94.7756 41.0625C93.2604 40.125 92.0909 38.8182 91.267 37.142C90.4527 35.4564 90.0455 33.4962 90.0455 31.2614C90.0455 29.0265 90.4527 27.0568 91.267 25.3523C92.0909 23.6383 93.2367 22.303 94.7045 21.3466C96.1818 20.3807 97.9053 19.8977 99.875 19.8977C101.011 19.8977 102.134 20.0871 103.241 20.4659C104.349 20.8447 105.358 21.4602 106.267 22.3125C107.176 23.1553 107.901 24.2727 108.44 25.6648C108.98 27.0568 109.25 28.7708 109.25 30.8068V32.2273H92.4318V29.3295H105.841C105.841 28.0985 105.595 27 105.102 26.0341C104.619 25.0682 103.928 24.3059 103.028 23.7472C102.138 23.1884 101.087 22.9091 99.875 22.9091C98.5398 22.9091 97.3845 23.2405 96.4091 23.9034C95.4432 24.5568 94.6998 25.4091 94.179 26.4602C93.6581 27.5114 93.3977 28.6383 93.3977 29.8409V31.7727C93.3977 33.4205 93.6818 34.8172 94.25 35.9631C94.8277 37.0994 95.6278 37.9659 96.6506 38.5625C97.6733 39.1496 98.8617 39.4432 100.216 39.4432C101.097 39.4432 101.892 39.3201 102.602 39.0739C103.322 38.8182 103.942 38.4394 104.463 37.9375C104.984 37.4261 105.386 36.7917 105.67 36.0341L108.909 36.9432C108.568 38.0417 107.995 39.0076 107.19 39.8409C106.385 40.6648 105.391 41.3087 104.207 41.7727C103.024 42.2273 101.693 42.4545 100.216 42.4545ZM116.263 20.1818L121.491 29.1023L126.718 20.1818H130.582L123.536 31.0909L130.582 42H126.718L121.491 33.5341L116.263 42H112.4L119.332 31.0909L112.4 20.1818H116.263ZM135.82 42V12.9091H139.342V38.875H152.865V42H135.82Z" fill="white"/>
</svg>
