<svg width="267" height="35" viewBox="0 0 267 35" fill="none" xmlns="http://www.w3.org/2000/svg">
<path d="M0.568867 28V2.45H4.03387V24.85H15.4089V28H0.568867ZM27.5402 28.35C25.2769 28.35 23.4685 27.685 22.1152 26.355C20.7619 25.025 20.0852 23.2167 20.0852 20.93V8.75H23.5502V20.93C23.5502 22.2833 23.9002 23.3567 24.6002 24.15C25.3235 24.92 26.3035 25.305 27.5402 25.305C28.8002 25.305 29.7919 24.92 30.5152 24.15C31.2385 23.3567 31.6002 22.2833 31.6002 20.93V8.75H35.0652V20.93C35.0652 23.2167 34.3769 25.025 33.0002 26.355C31.6235 27.685 29.8035 28.35 27.5402 28.35ZM40.9665 28V24.85H47.7215V11.9H41.6665V8.75H51.1865V24.85H57.5215V28H40.9665ZM49.1215 5.355C48.3282 5.355 47.6982 5.15667 47.2315 4.76C46.7649 4.34 46.5315 3.78 46.5315 3.08C46.5315 2.35667 46.7649 1.785 47.2315 1.365C47.6982 0.944999 48.3282 0.734998 49.1215 0.734998C49.9149 0.734998 50.5449 0.944999 51.0115 1.365C51.4782 1.785 51.7115 2.35667 51.7115 3.08C51.7115 3.78 51.4782 4.34 51.0115 4.76C50.5449 5.15667 49.9149 5.355 49.1215 5.355ZM68.7779 28.28C67.3312 28.28 66.0829 28.0583 65.0329 27.615C64.0062 27.1717 63.2129 26.5417 62.6529 25.725C62.1162 24.885 61.8479 23.87 61.8479 22.68H65.2779C65.2779 23.52 65.5812 24.185 66.1879 24.675C66.8179 25.1417 67.6812 25.375 68.7779 25.375H70.3179C71.4379 25.375 72.3129 25.13 72.9429 24.64C73.5729 24.15 73.8879 23.4617 73.8879 22.575C73.8879 21.7817 73.6895 21.175 73.2929 20.755C72.9195 20.3117 72.3479 20.0433 71.5779 19.95L66.3979 19.215C65.0212 19.0283 63.9595 18.4683 63.2129 17.535C62.4662 16.6017 62.0929 15.4 62.0929 13.93C62.0929 12.2033 62.6762 10.8617 63.8429 9.905C65.0095 8.94833 66.6429 8.47 68.7429 8.47H70.2829C72.2429 8.47 73.8179 8.93667 75.0079 9.87C76.2212 10.8033 76.8745 12.04 76.9679 13.58H73.4679C73.4445 12.9033 73.1412 12.355 72.5579 11.935C71.9745 11.515 71.2162 11.305 70.2829 11.305H68.7429C67.7162 11.305 66.9112 11.5383 66.3279 12.005C65.7445 12.4717 65.4529 13.1017 65.4529 13.895C65.4529 14.525 65.6162 15.0267 65.9429 15.4C66.2695 15.75 66.7479 15.9717 67.3779 16.065L72.2429 16.765C73.8995 16.9983 75.1479 17.605 75.9879 18.585C76.8279 19.5417 77.2479 20.8717 77.2479 22.575C77.2479 24.395 76.6412 25.8067 75.4279 26.81C74.2379 27.79 72.5345 28.28 70.3179 28.28H68.7779ZM104.136 28V2.45H107.601V13.23H115.441V2.45H118.906V28H115.441V16.38H107.601V28H104.136ZM132.507 28.35C130.967 28.35 129.614 28.0467 128.447 27.44C127.304 26.81 126.405 25.9233 125.752 24.78C125.122 23.6133 124.807 22.2367 124.807 20.65V16.1C124.807 14.49 125.122 13.1133 125.752 11.97C126.405 10.8267 127.304 9.95167 128.447 9.345C129.614 8.715 130.967 8.4 132.507 8.4C134.047 8.4 135.389 8.70333 136.532 9.31C137.699 9.91667 138.597 10.78 139.227 11.9C139.88 12.9967 140.207 14.3033 140.207 15.82V19.25H128.202V20.93C128.202 22.33 128.587 23.4267 129.357 24.22C130.15 25.0133 131.2 25.41 132.507 25.41C133.604 25.41 134.514 25.2 135.237 24.78C135.984 24.36 136.427 23.7767 136.567 23.03H140.032C139.799 24.6633 138.994 25.9583 137.617 26.915C136.24 27.8717 134.537 28.35 132.507 28.35ZM136.812 17.01V15.785C136.812 14.315 136.439 13.1833 135.692 12.39C134.945 11.5967 133.884 11.2 132.507 11.2C131.13 11.2 130.069 11.6083 129.322 12.425C128.575 13.2183 128.202 14.35 128.202 15.82V16.695H137.092L136.812 17.01ZM146.073 28V8.75H149.503V12.425H150.308L149.503 13.23C149.503 11.7133 149.958 10.535 150.868 9.695C151.801 8.83167 153.073 8.4 154.683 8.4C156.596 8.4 158.125 9.00667 159.268 10.22C160.411 11.4333 160.983 13.0667 160.983 15.12V28H157.518V15.68C157.518 14.28 157.168 13.2067 156.468 12.46C155.768 11.7133 154.811 11.34 153.598 11.34C152.338 11.34 151.346 11.7367 150.623 12.53C149.9 13.3 149.538 14.3967 149.538 15.82V28H146.073ZM167.759 28V8.75H171.189V12.495H171.994L171.189 13.37C171.189 11.8533 171.656 10.6517 172.589 9.765C173.523 8.855 174.806 8.4 176.439 8.4C178.446 8.4 179.986 9.00667 181.059 10.22C182.156 11.4333 182.704 13.16 182.704 15.4V17.08H179.239V15.435C179.239 14.0817 178.901 13.0783 178.224 12.425C177.548 11.7483 176.568 11.41 175.284 11.41C173.978 11.41 172.974 11.795 172.274 12.565C171.574 13.335 171.224 14.4317 171.224 15.855V28H167.759ZM187.871 28V24.85H194.626V11.9H188.571V8.75H198.091V24.85H204.426V28H187.871ZM196.026 5.355C195.232 5.355 194.602 5.15667 194.136 4.76C193.669 4.34 193.436 3.78 193.436 3.08C193.436 2.35667 193.669 1.785 194.136 1.365C194.602 0.944999 195.232 0.734998 196.026 0.734998C196.819 0.734998 197.449 0.944999 197.916 1.365C198.382 1.785 198.616 2.35667 198.616 3.08C198.616 3.78 198.382 4.34 197.916 4.76C197.449 5.15667 196.819 5.355 196.026 5.355ZM220.407 34.3V28.77L220.477 24.395H219.707L220.512 23.24C220.512 24.8033 220.022 26.0517 219.042 26.985C218.085 27.895 216.79 28.35 215.157 28.35C213.244 28.35 211.715 27.7083 210.572 26.425C209.429 25.1183 208.857 23.345 208.857 21.105V15.61C208.857 13.37 209.429 11.6083 210.572 10.325C211.739 9.04167 213.267 8.4 215.157 8.4C216.79 8.4 218.085 8.855 219.042 9.765C220.022 10.675 220.512 11.9233 220.512 13.51L219.707 12.495H220.442V8.75H223.872V34.3H220.407ZM216.382 25.34C217.642 25.34 218.622 24.955 219.322 24.185C220.045 23.3917 220.407 22.3067 220.407 20.93V15.82C220.407 14.4433 220.045 13.37 219.322 12.6C218.622 11.8067 217.642 11.41 216.382 11.41C215.099 11.41 214.095 11.7367 213.372 12.39C212.672 13.0433 212.322 14.0817 212.322 15.505V21.245C212.322 22.6683 212.672 23.7067 213.372 24.36C214.095 25.0133 215.099 25.34 216.382 25.34ZM237.403 28.35C235.14 28.35 233.332 27.685 231.978 26.355C230.625 25.025 229.948 23.2167 229.948 20.93V8.75H233.413V20.93C233.413 22.2833 233.763 23.3567 234.463 24.15C235.187 24.92 236.167 25.305 237.403 25.305C238.663 25.305 239.655 24.92 240.378 24.15C241.102 23.3567 241.463 22.2833 241.463 20.93V8.75H244.928V20.93C244.928 23.2167 244.24 25.025 242.863 26.355C241.487 27.685 239.667 28.35 237.403 28.35ZM258.425 28.35C256.885 28.35 255.531 28.0467 254.365 27.44C253.221 26.81 252.323 25.9233 251.67 24.78C251.04 23.6133 250.725 22.2367 250.725 20.65V16.1C250.725 14.49 251.04 13.1133 251.67 11.97C252.323 10.8267 253.221 9.95167 254.365 9.345C255.531 8.715 256.885 8.4 258.425 8.4C259.965 8.4 261.306 8.70333 262.45 9.31C263.616 9.91667 264.515 10.78 265.145 11.9C265.798 12.9967 266.125 14.3033 266.125 15.82V19.25H254.12V20.93C254.12 22.33 254.505 23.4267 255.275 24.22C256.068 25.0133 257.118 25.41 258.425 25.41C259.521 25.41 260.431 25.2 261.155 24.78C261.901 24.36 262.345 23.7767 262.485 23.03H265.95C265.716 24.6633 264.911 25.9583 263.535 26.915C262.158 27.8717 260.455 28.35 258.425 28.35ZM262.73 17.01V15.785C262.73 14.315 262.356 13.1833 261.61 12.39C260.863 11.5967 259.801 11.2 258.425 11.2C257.048 11.2 255.986 11.6083 255.24 12.425C254.493 13.2183 254.12 14.35 254.12 15.82V16.695H263.01L262.73 17.01Z" fill="white"/>
</svg>
