<svg width="32" height="32" viewBox="0 0 32 32" fill="none" xmlns="http://www.w3.org/2000/svg">
<g clip-path="url(#clip0_81_4)">
<path d="M24.5 0H7.5C3.35786 0 0 3.35786 0 7.5V24.5C0 28.6421 3.35786 32 7.5 32H24.5C28.6421 32 32 28.6421 32 24.5V7.5C32 3.35786 28.6421 0 24.5 0Z" fill="#242938"/>
<path d="M5.2045 25.3785H9.18175V15.7194L3.5 11.4581V23.674C3.5 24.6171 4.26425 25.3785 5.2045 25.3785Z" fill="#4285F4"/>
<path d="M22.8181 25.3785H26.7955C27.7386 25.3785 28.5 24.6144 28.5 23.674V11.4581L22.8181 15.7194" fill="#34A853"/>
<path d="M22.8181 8.33301V15.7194L28.5 11.4581V9.18513C28.5 7.07726 26.0937 5.87551 24.4091 7.13976" fill="#FBBC04"/>
<path d="M9.18188 15.7194V8.33313L16 13.4468L22.8181 8.33301V15.7194L16 20.8331" fill="#EA4335"/>
<path d="M3.5 9.18538V11.458L9.18175 15.7194V8.33313L7.59088 7.13988C5.90338 5.87563 3.5 7.07738 3.5 9.18538Z" fill="#C5221F"/>
</g>
<defs>
<clipPath id="clip0_81_4">
<rect width="32" height="32" fill="white"/>
</clipPath>
</defs>
</svg>
