<svg width="15" height="15" viewBox="0 0 15 15" fill="none" xmlns="http://www.w3.org/2000/svg">
<g clip-path="url(#clip0_81_4)">
<path d="M11.4844 0H3.51562C1.574 0 0 1.574 0 3.51562V11.4844C0 13.426 1.574 15 3.51562 15H11.4844C13.426 15 15 13.426 15 11.4844V3.51562C15 1.574 13.426 0 11.4844 0Z" fill="#242938"/>
<path d="M2.43961 11.8961H4.30395V7.36843L1.64062 5.37097V11.0972C1.64062 11.5393 1.99887 11.8961 2.43961 11.8961Z" fill="#4285F4"/>
<path d="M10.696 11.8961H12.5604C13.0025 11.8961 13.3594 11.538 13.3594 11.0972V5.37097L10.696 7.36843" fill="#34A853"/>
<path d="M10.696 3.90605V7.36841L13.3594 5.37095V4.30548C13.3594 3.31742 12.2315 2.7541 11.4418 3.34671" fill="#FBBC04"/>
<path d="M4.30396 7.36849V3.90619L7.49995 6.3032L10.6959 3.90613V7.36849L7.49995 9.76556" fill="#EA4335"/>
<path d="M1.64062 4.30566V5.37096L4.30395 7.36848V3.90617L3.55822 3.34684C2.76721 2.75422 1.64062 3.31754 1.64062 4.30566Z" fill="#C5221F"/>
</g>
<defs>
<clipPath id="clip0_81_4">
<rect width="15" height="15" fill="white"/>
</clipPath>
</defs>
</svg>
