<svg width="15" height="15" viewBox="0 0 15 15" fill="none" xmlns="http://www.w3.org/2000/svg">
<path d="M12.7509 2.18068C12.0634 1.48645 11.2445 0.936095 10.342 0.561702C9.43946 0.18731 8.47144 -0.00361952 7.49437 5.1961e-05C3.40031 5.1961e-05 0.06375 3.33568 0.06 7.43068C0.06 8.74224 0.403125 10.0182 1.05094 11.1479L0 15.0001L3.94125 13.9669C5.03108 14.5615 6.25289 14.8726 7.49437 14.8716H7.49813C11.5931 14.8716 14.9288 11.536 14.9325 7.43724C14.9333 6.46042 14.7409 5.49309 14.3664 4.59094C13.9918 3.68879 13.4434 2.86964 12.7509 2.18068ZM7.49437 13.6135C6.38735 13.6126 5.30084 13.3148 4.34813 12.751L4.12312 12.616L1.785 13.2291L2.40937 10.9482L2.26313 10.7129C1.64419 9.72879 1.31686 8.58945 1.31906 7.42693C1.31906 4.02755 4.09125 1.25443 7.49813 1.25443C8.30976 1.25297 9.11365 1.41218 9.86346 1.72289C10.6133 2.03359 11.2942 2.48964 11.8669 3.06474C12.4415 3.63769 12.897 4.31869 13.2072 5.06848C13.5174 5.81828 13.6762 6.62205 13.6744 7.43349C13.6706 10.8451 10.8984 13.6135 7.49437 13.6135ZM10.8834 8.98786C10.6988 8.89505 9.78656 8.44599 9.615 8.38224C9.44437 8.3213 9.31969 8.28943 9.19781 8.47505C9.07312 8.65974 8.71688 9.08068 8.61 9.20161C8.50313 9.3263 8.3925 9.34036 8.20687 9.24849C8.02219 9.15474 7.42313 8.95974 6.71438 8.32505C6.16125 7.83286 5.79094 7.22349 5.68031 7.0388C5.57344 6.85318 5.67 6.7538 5.76281 6.66099C5.84437 6.57849 5.9475 6.44349 6.04031 6.33661C6.13406 6.22974 6.165 6.15099 6.22594 6.02724C6.28687 5.90161 6.25781 5.79474 6.21187 5.70193C6.165 5.60911 5.79469 4.69318 5.63812 4.3238C5.48812 3.95911 5.33531 4.00974 5.22094 4.00505C5.11406 3.99849 4.98938 3.99849 4.86469 3.99849C4.77054 4.00089 4.6779 4.02269 4.59256 4.06253C4.50723 4.10238 4.43103 4.15941 4.36875 4.23005C4.19812 4.41568 3.72094 4.86474 3.72094 5.78068C3.72094 6.69661 4.38656 7.57693 4.48031 7.70161C4.57219 7.8263 5.78719 9.70036 7.65187 10.5066C8.0925 10.6988 8.43938 10.8122 8.71031 10.8985C9.15563 11.041 9.55781 11.0194 9.87844 10.9735C10.2347 10.9191 10.9763 10.5235 11.1328 10.0894C11.2866 9.65443 11.2866 9.28318 11.2397 9.20536C11.1938 9.12661 11.0691 9.08068 10.8834 8.98786Z" fill="#986DFF"/>
</svg>
